<?xml version="1.0" encoding="UTF-8"?>
<!DOCTYPE svg PUBLIC "-//W3C//DTD SVG 1.1//EN" "http://www.w3.org/Graphics/SVG/1.1/DTD/svg11.dtd">
<svg version="1.1" xmlns="http://www.w3.org/2000/svg" xmlns:xlink="http://www.w3.org/1999/xlink" x="0" y="0" width="235" height="598" viewBox="0, 0, 235, 598">
  <defs>
    <clipPath id="Clip_1">
      <path d="M-0,598 L234.695,598 L234.695,0.481 L-0,0.481 z"/>
    </clipPath>
    <clipPath id="Clip_2">
      <path d="M-0,598 L234.695,598 L234.695,0.481 L-0,0.481 z"/>
    </clipPath>
  </defs>
  <g id="Layer_1">
    <g>
      <path d="M203.503,345.347 C202.797,346.835 201.96,348.278 201.072,349.71 C199.593,352.091 196.903,353.951 196.3,356.782 C195.438,360.832 198.529,363.957 201.808,365.766 C209.131,369.808 221.809,369.177 222.279,358.59 C222.587,351.638 221.718,344.756 221.063,337.803 C220.895,336.025 221.152,331.873 219.737,330.545 C218.295,329.194 213.575,328.799 211.625,328.644 C209.884,328.506 206.116,327.969 205.246,329.531 C204.385,331.073 205.655,335.895 205.554,337.804 C205.411,340.523 204.622,342.992 203.503,345.347" fill="#F8CDA2"/>
      <path d="M46.748,183.758 C45.486,179.635 43.892,175.116 43.777,170.815 C43.664,166.557 45.14,163.452 46.304,159.537 C48.009,153.799 48.974,148.103 45.273,142.967 C41.779,138.119 36.505,134.686 34.619,128.759 C32.275,121.398 31.277,115.543 29.781,106.571 C29.161,102.853 28.867,94.291 22.539,95.076 C16.823,95.786 18.278,103.416 18.81,106.144 C20.173,113.145 21.386,117.946 22.732,123.901 C23.254,126.216 23.943,127.526 23.529,129.895 C20.135,126.677 17.183,126.878 13.404,130.176 C9.982,133.16 7.123,137.149 4.664,140.889 C1.746,145.331 -0.639,149.75 0.154,154.256 C1.203,160.207 6.07,166.022 10.658,169.62 C13.818,172.097 17.777,174.721 19.85,178.143 C22.526,182.56 22.078,187.834 23.42,192.755 C24.062,195.105 25.011,198.88 25.441,200.429 C32.601,200.079 44.732,196.283 50.581,193.424 C49.599,190.705 47.269,185.463 46.748,183.758" fill="#F8CDA2"/>
    </g>
    <path d="M3.116,156.033 C5.244,158.587 9.291,159.854 12.279,156.774 C16.217,152.716 11.654,150.703 8.988,148.305" fill="#F8CDA2"/>
    <path d="M1.963,156.993 C2.716,157.895 3.653,158.655 4.716,159.202 C5.779,159.747 6.974,160.081 8.226,160.081 C9.999,160.092 11.868,159.368 13.355,157.818 L13.355,157.819 C13.985,157.169 14.466,156.527 14.802,155.857 C15.137,155.191 15.317,154.487 15.316,153.799 C15.318,152.908 15.016,152.1 14.604,151.446 C13.98,150.458 13.135,149.725 12.302,149.046 C11.467,148.373 10.625,147.762 9.991,147.19 C9.375,146.636 8.426,146.686 7.872,147.302 C7.318,147.918 7.369,148.867 7.985,149.421 C9.059,150.38 10.263,151.193 11.114,151.971 C11.539,152.356 11.868,152.724 12.059,153.033 C12.252,153.349 12.314,153.571 12.316,153.799 C12.314,153.979 12.277,154.195 12.118,154.516 C11.96,154.834 11.673,155.245 11.202,155.729 C10.211,156.736 9.235,157.07 8.226,157.081 C7.514,157.082 6.778,156.889 6.087,156.533 C5.397,156.18 4.761,155.665 4.268,155.073 C3.738,154.436 2.792,154.35 2.156,154.88 C1.519,155.41 1.433,156.356 1.963,156.993" fill="#AC7F5B"/>
    <path d="M5.4,147.769 C11.513,153.258 15.906,154.792 18.484,152.612 C21.554,150.014 21.375,147.066 19.712,145.192 C18.589,143.925 13.249,140.921 11.092,138.881" fill="#F8CDA2"/>
    <path d="M4.398,148.885 C6.624,150.883 8.651,152.397 10.521,153.438 C12.391,154.473 14.117,155.06 15.777,155.065 C17.132,155.075 18.442,154.623 19.452,153.757 L19.453,153.757 C20.432,152.929 21.168,152.031 21.66,151.086 C22.153,150.142 22.396,149.151 22.395,148.194 C22.396,146.664 21.785,145.264 20.835,144.197 C20.597,143.931 20.343,143.711 20.048,143.472 C19.536,143.061 18.906,142.618 18.204,142.139 C17.152,141.424 15.944,140.637 14.835,139.871 C13.729,139.11 12.715,138.355 12.123,137.792 C11.521,137.222 10.572,137.249 10.002,137.851 C9.433,138.453 9.46,139.402 10.062,139.971 C10.69,140.564 11.468,141.16 12.318,141.769 C13.59,142.68 15.019,143.609 16.221,144.42 C16.821,144.825 17.364,145.2 17.788,145.516 C18.208,145.826 18.523,146.104 18.59,146.187 C19.114,146.782 19.394,147.466 19.395,148.194 C19.394,148.654 19.285,149.149 19,149.699 C18.715,150.247 18.245,150.849 17.515,151.467 L17.516,151.466 C17.027,151.868 16.53,152.056 15.777,152.065 C14.866,152.071 13.571,151.706 11.979,150.816 C10.387,149.932 8.511,148.548 6.402,146.653 C5.786,146.099 4.837,146.151 4.284,146.767 C3.73,147.383 3.781,148.332 4.398,148.885" fill="#AC7F5B"/>
    <path d="M18.792,130.508 C22.613,134.816 26.98,138.933 27.451,142.055 C27.921,145.159 23.087,148.678 21.39,147.904 C17.943,146.331 13.234,142.207 9.618,138.311" fill="#F8CDA2"/>
    <path d="M17.67,131.504 C19.61,133.69 21.652,135.793 23.224,137.685 C24.01,138.629 24.676,139.52 25.15,140.311 C25.628,141.101 25.898,141.79 25.967,142.279 L25.968,142.28 L25.983,142.486 C25.985,142.817 25.862,143.258 25.586,143.738 C25.178,144.457 24.437,145.219 23.68,145.744 C23.303,146.007 22.924,146.214 22.606,146.343 C22.29,146.474 22.031,146.516 21.952,146.512 L21.93,146.512 L21.922,146.606 L21.945,146.515 L21.93,146.512 L21.922,146.606 L21.945,146.515 L21.85,146.895 L22.012,146.539 L21.945,146.515 L21.85,146.895 L22.012,146.539 L22.013,146.539 C20.497,145.852 18.522,144.49 16.527,142.825 C14.526,141.161 12.483,139.194 10.717,137.291 C10.153,136.683 9.204,136.648 8.597,137.212 C7.99,137.775 7.955,138.724 8.518,139.332 C10.368,141.324 12.488,143.367 14.608,145.131 C16.733,146.896 18.836,148.382 20.767,149.268 L20.768,149.269 C21.173,149.452 21.578,149.512 21.952,149.512 C22.798,149.503 23.548,149.238 24.298,148.865 C25.413,148.296 26.506,147.437 27.391,146.372 C27.832,145.838 28.219,145.25 28.507,144.603 C28.793,143.958 28.982,143.245 28.983,142.486 C28.983,142.27 28.967,142.05 28.934,141.83 L28.934,141.832 C28.768,140.76 28.316,139.763 27.723,138.768 C26.827,137.28 25.583,135.783 24.207,134.234 C22.832,132.689 21.324,131.103 19.915,129.513 C19.365,128.893 18.417,128.836 17.797,129.386 C17.177,129.936 17.121,130.884 17.67,131.504" fill="#AC7F5B"/>
    <path d="M38.613,141.201 C35.048,139.048 30.914,138.034 27.121,138.708 C22.912,139.455 15.108,143.046 16.127,146.501 C17.915,152.558 25.687,150.806 29.269,150.04 C25.976,151.547 24.253,157.264 27.163,164.631" fill="#F8CDA2"/>
    <path d="M39.388,139.917 C36.353,138.086 32.919,137.004 29.506,137.001 C28.618,137.001 27.732,137.075 26.858,137.231 C24.659,137.628 21.807,138.64 19.353,140.032 C18.128,140.732 17.007,141.522 16.124,142.449 C15.684,142.914 15.3,143.417 15.012,143.984 C14.726,144.549 14.536,145.191 14.536,145.874 C14.536,146.224 14.587,146.58 14.689,146.925 C14.994,147.964 15.467,148.863 16.074,149.599 C16.983,150.708 18.171,151.419 19.4,151.828 C20.633,152.239 21.918,152.375 23.168,152.376 C25.654,152.373 28.05,151.832 29.583,151.506 L29.269,150.04 L28.645,148.676 C27.216,149.33 26.087,150.536 25.335,152.053 C24.58,153.575 24.18,155.424 24.178,157.508 C24.179,159.811 24.671,162.405 25.767,165.182 C26.072,165.953 26.943,166.331 27.713,166.027 C28.484,165.722 28.862,164.851 28.558,164.08 C27.583,161.613 27.178,159.382 27.178,157.508 C27.178,155.812 27.511,154.412 28.022,153.388 C28.535,152.359 29.201,151.72 29.894,151.403 C30.589,151.085 30.934,150.294 30.693,149.568 C30.452,148.842 29.703,148.413 28.955,148.573 C27.423,148.903 25.22,149.379 23.168,149.376 C21.796,149.379 20.526,149.159 19.593,148.661 C19.122,148.412 18.728,148.102 18.391,147.694 C18.056,147.284 17.772,146.77 17.566,146.076 L17.536,145.874 C17.537,145.745 17.57,145.575 17.689,145.339 C17.891,144.928 18.377,144.363 19.079,143.809 C20.129,142.97 21.627,142.146 23.15,141.504 C24.672,140.859 26.235,140.386 27.383,140.184 C28.075,140.061 28.785,140.001 29.506,140.001 C32.274,139.999 35.215,140.899 37.837,142.485 C38.547,142.913 39.469,142.685 39.897,141.976 C40.325,141.267 40.097,140.345 39.388,139.917" fill="#AC7F5B"/>
    <path d="M47.666,183.349 C46.085,182.004 22.344,188.664 21.937,190.092 C21.824,190.489 23.394,198.921 25.568,209.168 C34.937,207.011 44.132,203.992 52.893,200.474 C50.441,191.297 48.289,183.88 47.666,183.349" fill="#FFFFFE"/>
    <path d="M47.666,183.349 L48.638,182.207 C48.43,182.032 48.235,181.937 48.064,181.87 C47.806,181.772 47.587,181.734 47.371,181.706 C47.156,181.68 46.943,181.671 46.721,181.671 C45.984,181.673 45.11,181.771 44.072,181.933 C40.467,182.503 34.944,183.895 30.208,185.3 C27.842,186.003 25.685,186.706 24.06,187.32 C23.245,187.629 22.567,187.912 22.026,188.187 C21.753,188.327 21.516,188.46 21.279,188.632 C21.159,188.72 21.038,188.817 20.904,188.963 C20.774,189.111 20.608,189.307 20.494,189.681 L20.493,189.686 L20.495,189.68 C20.452,189.837 20.445,189.922 20.438,189.993 L20.431,190.16 C20.432,190.318 20.443,190.43 20.457,190.571 C20.511,191.075 20.638,191.877 20.834,193.007 C21.421,196.376 22.621,202.504 24.101,209.479 L24.417,210.972 L25.904,210.629 C35.363,208.452 44.63,205.408 53.452,201.866 L54.685,201.371 L54.342,200.087 C53.114,195.49 51.96,191.332 51.03,188.238 C50.564,186.689 50.155,185.409 49.812,184.452 C49.64,183.972 49.485,183.575 49.334,183.241 C49.258,183.073 49.183,182.922 49.092,182.766 C48.991,182.608 48.911,182.451 48.639,182.208 L48.638,182.207 L47.666,183.349 L46.692,184.491 L47.389,183.674 L46.528,184.319 C46.552,184.348 46.59,184.402 46.692,184.491 L47.389,183.674 L46.528,184.319 L46.968,183.989 L46.509,184.291 L46.528,184.319 L46.968,183.989 L46.509,184.291 L46.659,184.193 L46.506,184.288 L46.509,184.291 L46.659,184.193 L46.506,184.288 C46.511,184.29 46.614,184.489 46.726,184.772 C47.142,185.793 47.832,187.958 48.649,190.766 C49.469,193.581 50.431,197.07 51.444,200.861 L52.893,200.474 L52.334,199.082 C43.635,202.575 34.511,205.57 25.231,207.706 L25.568,209.168 L27.035,208.856 C25.987,203.917 25.08,199.4 24.436,196.011 C24.114,194.318 23.857,192.905 23.683,191.871 C23.596,191.354 23.53,190.931 23.487,190.623 C23.465,190.47 23.45,190.345 23.441,190.258 L23.432,190.161 L23.431,190.16 L22.417,190.16 L23.427,190.246 L23.431,190.16 L22.417,190.16 L23.427,190.246 L22.073,190.131 L23.379,190.505 C23.419,190.361 23.422,190.295 23.427,190.246 L22.073,190.131 L23.379,190.505 L23.38,190.503 L22.254,190.183 L23.094,191.013 C23.14,190.956 23.271,190.849 23.38,190.503 L22.254,190.183 L23.094,191.013 L22.721,190.644 L23.05,191.053 L23.094,191.013 L22.721,190.644 L23.05,191.053 L23.051,191.053 C23.072,191.035 23.215,190.945 23.423,190.842 C23.818,190.644 24.45,190.378 25.229,190.086 C27.968,189.057 32.532,187.682 36.822,186.583 C38.969,186.032 41.052,185.548 42.807,185.205 C44.551,184.861 46.009,184.666 46.721,184.671 C46.898,184.67 47.022,184.684 47.045,184.689 L47.048,184.69 L47.235,183.856 L46.693,184.491 C46.936,184.686 47.046,184.683 47.048,184.69 L47.235,183.856 L46.693,184.491 L46.692,184.491 L47.666,183.349" fill="#777776"/>
    <path d="M221.381,233.714 C222.758,255.514 223.63,272.327 224.72,291.766 C224.894,294.878 226.195,345.569 223.813,345.908 C215.003,347.161 205.443,346.418 196.466,346.335 C178.589,346.171 161.46,341.281 143.686,341.281 C137.25,341.281 125.53,350.718 120.067,348.343 C114.151,345.772 112.425,328.087 111.181,322.495 C107.814,307.35 104.541,292.009 101.595,276.821 C100.12,269.217 93.489,239.164 97.689,232.926 C93.222,239.56 91.38,247.455 87.218,254.139 C85.535,256.843 83.134,259.46 80.98,261.8 C76.481,266.684 71.199,272.057 65.344,275.288 C62.738,276.726 57.376,277.636 54.497,277.581 C46.302,277.422 39.72,272.793 36.38,264.809 C32.623,255.827 20.333,208.261 20.89,200.732 C22.273,199.485 30.277,196.365 36.63,194.415 C41.329,192.972 52.41,190.985 53.023,191.712 C54.345,193.278 61.233,212.516 61.894,214.604 C64.369,206.47 67.144,199.353 69.615,191.364 C76.228,169.983 93.1,147.201 144.451,147.203 C221.503,147.208 218.865,193.868 221.381,233.714" fill="#FFFFFE"/>
    <g>
      <path d="M221.381,233.714 L219.884,233.809 C221.261,255.6 222.132,272.406 223.223,291.85 C223.244,292.222 223.288,293.506 223.34,295.387 C223.496,301.045 223.73,312.278 223.73,322.702 C223.731,328.714 223.652,334.462 223.438,338.69 C223.332,340.801 223.189,342.538 223.017,343.69 C222.934,344.261 222.835,344.693 222.77,344.881 L222.739,344.963 L222.785,344.984 L222.74,344.96 L222.739,344.963 L222.785,344.984 L222.74,344.96 L223.445,345.329 L222.89,344.768 C222.776,344.884 222.749,344.946 222.74,344.96 L223.445,345.329 L222.89,344.768 L223.779,345.666 L223.602,344.423 C223.241,344.474 222.998,344.658 222.89,344.768 L223.779,345.666 L223.602,344.423 C219.772,344.968 215.757,345.129 211.683,345.129 C206.631,345.129 201.489,344.881 196.48,344.835 C178.87,344.69 161.738,339.797 143.686,339.781 C141.933,339.788 140.115,340.319 138.207,341.043 C135.355,342.137 132.305,343.718 129.441,345.002 C128.012,345.645 126.633,346.213 125.38,346.61 C124.127,347.009 123.002,347.229 122.117,347.227 C121.521,347.227 121.044,347.133 120.665,346.968 C120.204,346.769 119.701,346.379 119.191,345.765 C118.295,344.697 117.436,342.975 116.714,340.936 C115.621,337.875 114.803,334.115 114.167,330.672 C113.528,327.219 113.075,324.109 112.645,322.169 C109.28,307.033 106.009,291.705 103.068,276.535 C102.498,273.598 101.183,267.426 100.01,260.564 C98.836,253.712 97.812,246.161 97.815,240.645 C97.814,238.959 97.911,237.467 98.112,236.276 C98.307,235.085 98.628,234.203 98.933,233.764 L96.445,232.089 C94.111,235.557 92.502,239.284 90.958,242.929 C89.416,246.578 87.939,250.146 85.945,253.346 C84.37,255.881 82.029,258.45 79.877,260.784 C75.409,265.642 70.199,270.904 64.62,273.974 C63.602,274.544 61.772,275.115 59.901,275.489 C58.027,275.872 56.072,276.085 54.753,276.083 L54.525,276.081 L54.454,276.079 L54.525,276.081 C50.702,276.004 47.321,274.9 44.482,272.903 C41.646,270.904 39.341,267.994 37.764,264.23 C37.336,263.209 36.755,261.556 36.087,259.471 C33.744,252.16 30.298,239.488 27.451,227.695 C26.027,221.798 24.75,216.114 23.833,211.43 C23.375,209.089 23.007,206.997 22.755,205.262 C22.502,203.531 22.37,202.142 22.372,201.288 C22.372,201.113 22.377,200.963 22.386,200.843 L20.89,200.732 L21.895,201.846 C21.919,201.819 22.136,201.66 22.449,201.484 C23.004,201.165 23.875,200.741 24.93,200.279 C28.103,198.886 32.962,197.109 37.07,195.849 C38.971,195.264 42.117,194.551 45.092,193.999 C46.581,193.723 48.033,193.484 49.274,193.317 C50.509,193.149 51.553,193.055 52.128,193.057 C52.321,193.056 52.46,193.07 52.476,193.074 L52.514,192.849 L52.458,193.07 L52.476,193.074 L52.514,192.849 L52.458,193.07 L52.678,192.208 L52.285,193.004 C52.381,193.05 52.432,193.063 52.458,193.07 L52.678,192.208 L52.285,193.004 L52.85,191.858 L51.876,192.679 C52.044,192.875 52.193,192.956 52.285,193.004 L52.85,191.858 L51.876,192.679 L51.873,192.676 L51.877,192.68 L52.207,192.402 L51.864,192.664 L51.877,192.68 L52.207,192.402 L51.864,192.664 L51.865,192.665 C51.884,192.691 51.979,192.846 52.09,193.062 C52.523,193.896 53.261,195.632 54.088,197.72 C55.335,200.861 56.821,204.851 58.049,208.23 C58.663,209.919 59.214,211.456 59.638,212.659 C60.061,213.857 60.364,214.74 60.464,215.057 L61.923,219.663 L63.329,215.041 C65.782,206.975 68.556,199.861 71.048,191.807 C74.3,181.31 79.999,170.615 91.139,162.477 C102.282,154.344 118.984,148.706 144.444,148.703 L144.447,148.703 L144.447,147.448 L144.43,148.703 L144.447,148.703 L144.447,147.448 L144.43,148.703 L144.451,148.703 C163.566,148.703 177.627,151.603 187.985,156.476 C195.757,160.134 201.461,164.887 205.739,170.437 C212.149,178.757 215.355,188.939 217.113,199.904 C218.872,210.863 219.176,222.564 219.884,233.809 L221.381,233.714 L222.878,233.62 C222.25,223.692 221.945,213.272 220.622,203.192 C219.628,195.632 218.062,188.257 215.326,181.423 C211.233,171.175 204.442,162.141 193.179,155.783 C181.919,149.419 166.287,145.705 144.451,145.703 L144.451,147.203 L144.471,145.703 L144.444,145.703 C118.559,145.7 101.152,151.452 89.37,160.054 C77.585,168.652 71.542,180.038 68.182,190.921 C65.732,198.845 62.955,205.966 60.459,214.167 L61.894,214.604 L63.324,214.151 C63.23,213.855 63.05,213.328 62.794,212.591 C61.898,210.024 60.097,205.019 58.369,200.467 C57.505,198.19 56.659,196.029 55.95,194.333 C55.595,193.484 55.274,192.753 54.994,192.168 C54.854,191.874 54.724,191.618 54.597,191.391 C54.466,191.161 54.357,190.972 54.169,190.745 L54.175,190.752 L54.17,190.746 C53.897,190.433 53.647,190.324 53.461,190.246 C53.177,190.139 52.972,190.112 52.762,190.087 C52.554,190.065 52.349,190.057 52.128,190.057 C51.284,190.059 50.183,190.169 48.872,190.344 C46.915,190.608 44.532,191.028 42.244,191.501 C39.954,191.974 37.773,192.495 36.19,192.981 C32.968,193.97 29.353,195.247 26.342,196.443 C24.836,197.042 23.483,197.619 22.393,198.139 C21.848,198.4 21.368,198.646 20.957,198.881 C20.543,199.122 20.207,199.333 19.886,199.618 L19.439,200.021 L19.394,200.621 C19.379,200.833 19.372,201.054 19.372,201.288 C19.374,202.574 19.57,204.313 19.905,206.487 C21.081,214.061 24.03,226.781 27.094,238.625 C28.626,244.544 30.186,250.236 31.568,254.94 C32.258,257.292 32.905,259.397 33.482,261.165 C34.061,262.934 34.567,264.359 34.997,265.388 C36.76,269.607 39.416,273.005 42.754,275.356 C46.09,277.709 50.097,278.998 54.468,279.08 L54.539,279.082 L54.468,279.08 C54.562,279.082 54.657,279.083 54.753,279.083 C56.366,279.081 58.441,278.845 60.498,278.429 C62.556,278.005 64.555,277.428 66.069,276.601 C72.199,273.21 77.553,267.726 82.083,262.817 C84.24,260.47 86.699,257.805 88.492,254.932 C90.659,251.447 92.184,247.727 93.721,244.098 C95.255,240.467 96.8,236.93 98.933,233.764 L96.445,232.088 C95.765,233.112 95.399,234.347 95.153,235.779 C94.913,237.21 94.815,238.846 94.815,240.645 C94.818,246.507 95.869,254.134 97.053,261.07 C98.237,267.995 99.563,274.223 100.123,277.107 C103.072,292.313 106.348,307.667 109.717,322.82 C110.01,324.134 110.354,326.294 110.784,328.787 C111.433,332.535 112.279,337.058 113.558,340.975 C114.2,342.936 114.947,344.749 115.879,346.268 C116.812,347.776 117.939,349.044 119.469,349.719 C120.311,350.085 121.211,350.227 122.117,350.227 C123.919,350.22 125.788,349.692 127.729,348.967 C130.631,347.873 133.696,346.29 136.541,345.003 C137.961,344.36 139.322,343.792 140.547,343.395 C141.77,342.996 142.858,342.778 143.686,342.781 C161.183,342.765 178.309,347.653 196.453,347.834 C201.381,347.879 206.534,348.128 211.683,348.129 C215.836,348.128 219.987,347.967 224.024,347.393 C224.364,347.345 224.647,347.194 224.838,347.044 C225.208,346.741 225.337,346.471 225.457,346.232 C225.661,345.784 225.764,345.347 225.871,344.806 C226.049,343.869 226.181,342.652 226.292,341.166 C226.621,336.723 226.73,329.905 226.73,322.702 C226.73,315.723 226.626,308.399 226.51,302.607 C226.452,299.711 226.391,297.198 226.339,295.304 C226.286,293.404 226.243,292.145 226.218,291.683 C225.128,272.247 224.256,255.429 222.878,233.62 L221.381,233.714" fill="#777776"/>
      <path d="M194.757,338.101 C192.945,334.59 189.34,254.602 192.779,250.632 C196.246,246.631 229.235,261.699 232.041,266.095 C234.844,270.487 231.547,351.938 229.613,355.777 C227.677,359.616 196.807,342.078 194.757,338.101" fill="#FFFFFE"/>
    </g>
    <path d="M194.757,338.101 L196.152,337.381 L195.573,337.68 L196.174,337.427 L196.152,337.381 L195.573,337.68 L196.174,337.427 L195.972,337.512 L196.176,337.433 L196.174,337.427 L195.972,337.512 L196.176,337.433 C196.169,337.427 196.083,337.121 196.01,336.698 C195.863,335.887 195.696,334.57 195.526,332.886 C194.927,326.974 194.273,316.485 193.771,304.96 C193.268,293.432 192.917,280.85 192.917,270.709 C192.917,265.327 193.016,260.628 193.241,257.168 C193.353,255.441 193.498,254.019 193.667,253.012 C193.75,252.511 193.841,252.112 193.92,251.857 C193.959,251.731 193.995,251.641 194.013,251.602 L194.023,251.583 L193.56,251.309 L193.965,251.66 L194.023,251.583 L193.56,251.309 L193.965,251.66 L193.757,251.48 L193.93,251.695 L193.965,251.66 L193.757,251.48 L193.93,251.695 L193.869,251.619 L193.924,251.699 L193.93,251.695 L193.869,251.619 L193.924,251.699 L193.988,251.669 C194.126,251.609 194.513,251.529 195.063,251.533 C195.924,251.531 197.163,251.7 198.614,252.028 C203.72,253.172 211.418,256.195 218.004,259.336 C221.301,260.905 224.334,262.506 226.64,263.902 C227.792,264.599 228.764,265.246 229.479,265.793 C230.192,266.327 230.653,266.816 230.717,266.94 L231.048,266.729 L230.693,266.897 L230.718,266.94 L231.048,266.729 L230.693,266.897 C230.698,266.901 230.769,267.094 230.829,267.382 C230.941,267.893 231.054,268.714 231.146,269.751 C231.429,272.878 231.556,277.989 231.555,284.151 C231.555,296.837 231.028,314.037 230.326,328.391 C229.975,335.568 229.58,342.037 229.187,346.866 C228.991,349.279 228.795,351.285 228.608,352.747 C228.516,353.477 228.424,354.072 228.342,354.496 C228.301,354.707 228.262,354.875 228.232,354.984 L228.199,355.095 L228.195,355.104 L228.657,355.295 L228.211,355.071 L228.195,355.104 L228.657,355.295 L228.211,355.071 L228.914,355.424 L228.404,354.824 C228.334,354.882 228.258,354.975 228.211,355.07 L228.914,355.424 L228.404,354.824 L228.786,355.274 L228.529,354.741 L228.404,354.824 L228.786,355.274 L228.529,354.741 L228.623,354.937 L228.559,354.728 L228.529,354.741 L228.623,354.937 L228.559,354.728 C228.558,354.73 228.453,354.754 228.274,354.753 C227.773,354.76 226.774,354.575 225.555,354.188 C223.406,353.519 220.515,352.284 217.416,350.768 C212.762,348.494 207.608,345.583 203.502,342.97 C201.451,341.664 199.658,340.43 198.338,339.405 C197.678,338.894 197.137,338.434 196.753,338.064 C196.37,337.703 196.147,337.392 196.152,337.382 L193.362,338.82 C193.597,339.266 193.884,339.608 194.23,339.977 C194.877,340.657 195.751,341.389 196.836,342.209 C200.617,345.06 206.964,348.911 213.093,352.102 C216.157,353.695 219.157,355.117 221.76,356.156 C223.063,356.675 224.266,357.099 225.347,357.4 C226.432,357.7 227.38,357.888 228.274,357.892 C228.746,357.89 229.215,357.841 229.709,357.649 C229.954,357.551 230.206,357.412 230.437,357.216 C230.668,357.021 230.873,356.766 231.014,356.484 C231.137,356.234 231.197,356.037 231.26,355.814 C231.375,355.391 231.468,354.894 231.565,354.27 C231.922,351.955 232.285,347.922 232.643,342.739 C233.713,327.209 234.694,301.545 234.694,284.151 C234.694,279.267 234.617,275.038 234.441,271.842 C234.352,270.243 234.239,268.904 234.092,267.844 C234.017,267.312 233.935,266.85 233.832,266.439 C233.722,266.023 233.623,265.672 233.364,265.251 C233.09,264.827 232.761,264.48 232.371,264.118 C231.641,263.448 230.68,262.751 229.506,261.99 C225.41,259.348 218.7,256.002 212.072,253.269 C208.759,251.905 205.476,250.7 202.551,249.826 C201.088,249.39 199.715,249.036 198.462,248.788 C197.208,248.54 196.078,248.395 195.063,248.394 C194.417,248.395 193.815,248.451 193.231,248.615 C192.654,248.78 192.06,249.069 191.593,249.604 C191.209,250.068 191.072,250.472 190.92,250.932 C190.677,251.73 190.514,252.714 190.369,253.956 C189.945,257.656 189.779,263.586 189.778,270.709 C189.778,283.304 190.314,299.553 191.01,312.98 C191.357,319.694 191.745,325.7 192.126,330.199 C192.317,332.449 192.506,334.321 192.691,335.734 C192.784,336.442 192.875,337.034 192.97,337.519 C193.018,337.763 193.067,337.98 193.124,338.184 C193.184,338.391 193.239,338.576 193.363,338.821 L194.757,338.101" fill="#777776"/>
    <path d="M188.782,340.438 C186.982,337.001 183.417,258.766 186.839,254.883 C190.285,250.973 223.069,266.039 225.858,270.338 C228.646,274.635 225.347,354.299 223.421,358.052 C221.495,361.807 190.822,344.328 188.782,340.438" fill="#FFFFFE"/>
    <path d="M188.782,340.438 L190.172,339.71 L189.573,340.024 L190.195,339.757 L190.172,339.71 L189.573,340.024 L190.195,339.757 L189.957,339.859 L190.198,339.765 L190.195,339.757 L189.957,339.859 L190.198,339.765 C190.193,339.765 190.108,339.468 190.036,339.057 C189.892,338.269 189.726,336.985 189.558,335.343 C188.966,329.579 188.318,319.347 187.823,308.099 C187.326,296.848 186.979,284.56 186.979,274.64 C186.979,269.346 187.079,264.723 187.303,261.319 C187.415,259.619 187.559,258.221 187.727,257.233 C187.81,256.74 187.901,256.349 187.979,256.102 C188.017,255.979 188.053,255.893 188.07,255.857 L188.078,255.84 L187.92,255.754 L188.069,255.855 L188.078,255.84 L187.92,255.754 L188.069,255.855 L187.525,255.488 L188.017,255.921 L188.069,255.855 L187.525,255.488 L188.017,255.921 L187.788,255.719 L187.978,255.959 L188.017,255.921 L187.788,255.719 L187.978,255.959 L187.897,255.856 L187.971,255.964 L187.978,255.959 L187.897,255.856 L187.971,255.964 L187.98,255.959 C188.036,255.918 188.431,255.804 189.047,255.811 C189.889,255.809 191.114,255.978 192.552,256.307 C197.614,257.454 205.284,260.485 211.852,263.624 C215.14,265.193 218.167,266.791 220.47,268.181 C221.62,268.875 222.59,269.518 223.305,270.061 C223.662,270.331 223.954,270.577 224.167,270.779 C224.379,270.978 224.51,271.142 224.541,271.193 L224.897,270.962 L224.514,271.146 L224.541,271.193 L224.897,270.962 L224.514,271.146 C224.517,271.146 224.586,271.328 224.645,271.606 C224.755,272.098 224.866,272.894 224.958,273.9 C225.237,276.935 225.363,281.902 225.363,287.893 C225.363,300.291 224.835,317.139 224.132,331.205 C223.781,338.238 223.387,344.579 222.994,349.312 C222.798,351.678 222.602,353.644 222.416,355.075 C222.324,355.79 222.232,356.372 222.151,356.786 C222.11,356.992 222.072,357.156 222.042,357.261 L222.01,357.366 L222.007,357.373 L222.38,357.518 L222.025,357.336 L222.007,357.373 L222.38,357.518 L222.025,357.336 L222.744,357.705 L222.223,357.086 C222.152,357.144 222.074,357.238 222.025,357.336 L222.744,357.705 L222.223,357.086 L222.618,357.555 L222.352,357 L222.223,357.086 L222.618,357.555 L222.352,357 L222.461,357.227 L222.387,356.986 L222.352,357 L222.461,357.227 L222.387,356.986 C222.387,356.987 222.294,357.009 222.123,357.008 C221.638,357.015 220.65,356.831 219.442,356.445 C217.312,355.776 214.439,354.543 211.356,353.029 C206.726,350.759 201.592,347.855 197.5,345.253 C195.455,343.953 193.668,342.726 192.351,341.709 C191.693,341.202 191.153,340.746 190.77,340.379 C190.579,340.197 190.427,340.036 190.324,339.914 L190.208,339.765 L190.172,339.709 L187.392,341.167 C187.628,341.607 187.914,341.943 188.258,342.307 C188.903,342.977 189.773,343.701 190.854,344.515 C194.62,347.342 200.945,351.181 207.044,354.364 C210.093,355.954 213.076,357.374 215.662,358.411 C216.956,358.93 218.15,359.353 219.222,359.655 C220.298,359.954 221.236,360.143 222.123,360.147 C222.584,360.145 223.043,360.098 223.528,359.91 C223.769,359.815 224.016,359.679 224.245,359.487 C224.473,359.296 224.677,359.046 224.818,358.769 C224.943,358.52 225.003,358.324 225.066,358.104 C225.182,357.686 225.275,357.197 225.372,356.585 C225.729,354.311 226.091,350.357 226.449,345.275 C227.519,330.051 228.501,304.898 228.502,287.893 C228.502,283.143 228.426,279.031 228.25,275.922 C228.162,274.366 228.051,273.063 227.904,272.029 C227.83,271.51 227.748,271.059 227.645,270.656 C227.535,270.248 227.436,269.901 227.175,269.484 C226.9,269.066 226.573,268.726 226.184,268.369 C225.457,267.708 224.499,267.018 223.328,266.263 C219.245,263.639 212.55,260.294 205.948,257.559 C202.649,256.193 199.381,254.985 196.475,254.11 C195.021,253.672 193.658,253.317 192.415,253.068 C191.171,252.82 190.052,252.673 189.047,252.672 C188.421,252.673 187.836,252.727 187.267,252.886 C186.704,253.046 186.123,253.325 185.662,253.846 C185.274,254.306 185.136,254.708 184.983,255.164 C184.739,255.954 184.575,256.924 184.431,258.148 C184.007,261.795 183.841,267.633 183.84,274.64 C183.84,286.964 184.37,302.828 185.057,315.932 C185.401,322.484 185.784,328.343 186.161,332.733 C186.35,334.929 186.537,336.756 186.72,338.136 C186.812,338.827 186.903,339.406 186.998,339.882 C187.046,340.12 187.094,340.333 187.151,340.535 C187.211,340.739 187.266,340.922 187.391,341.166 L188.782,340.438" fill="#777776"/>
    <path d="M216.155,361.702 C218.469,356.564 217.761,351.154 214.847,346.291 C211.652,340.96 203.497,338.07 197.992,341.944 C189.084,348.212 195.173,359.951 202.899,364.085 C207.796,366.704 212.874,368.061 215.735,362.567 C215.884,362.28 216.024,361.992 216.155,361.702" fill="#F8CDA2"/>
    <g clip-path="url(#Clip_1)">
      <path d="M127.003,112.859 L161.855,112.859 L161.855,158.874 L127.003,158.874 z" fill="#F8CDA2"/>
      <path d="M189.414,583.573 C189.414,598.927 164.754,601.132 144.432,594.391 C124.542,600.619 99.441,598.927 99.441,583.573 C99.441,568.228 119.583,542.209 144.432,542.209 C169.272,542.209 189.414,568.228 189.414,583.573" fill="#595A59"/>
    </g>
    <path d="M144.432,312.412 C113.787,312.412 92.394,217.165 92.394,361.246 C92.394,443.479 109.683,564.619 109.683,564.619 C109.683,564.619 126.117,570.793 144.432,570.793 C162.747,570.793 179.253,564.322 179.253,564.322 C179.253,564.322 196.47,443.299 196.47,361.246 C196.47,217.165 175.077,312.412 144.432,312.412" fill="#777776"/>
    <path d="M144.432,566.968 C143.604,566.968 142.929,566.302 142.929,565.474 L142.929,369.985 C142.929,369.157 143.604,368.482 144.432,368.482 C145.26,368.482 145.926,369.157 145.926,369.985 L145.926,565.474 C145.926,566.302 145.26,566.968 144.432,566.968" fill="#5E5F5E"/>
    <path d="M198.291,203.36 L208.509,456.653 C208.509,456.653 184.1,469.689 142.315,469.689 C100.533,469.689 80.353,456.653 80.353,456.653 L88.869,203.36" fill="#FFFFFE"/>
    <path d="M196.792,203.42 L207.01,456.713 L208.509,456.653 L207.803,455.33 L207.792,455.335 C207.197,455.649 183.136,468.19 142.315,468.189 C121.58,468.189 106.248,464.956 96.119,461.741 C91.055,460.134 87.293,458.531 84.808,457.338 C83.566,456.741 82.643,456.247 82.037,455.906 C81.734,455.735 81.511,455.603 81.366,455.515 L81.207,455.418 L81.172,455.396 L81.167,455.393 L80.353,456.653 L81.852,456.703 L90.368,203.41 C90.396,202.582 89.747,201.889 88.919,201.861 C88.091,201.833 87.397,202.482 87.369,203.31 L78.854,456.602 C78.836,457.128 79.097,457.627 79.539,457.913 C79.732,458.042 100.216,471.192 142.315,471.189 C184.417,471.188 209.062,458.058 209.216,457.976 C209.722,457.706 210.031,457.166 210.008,456.592 L199.789,203.299 C199.756,202.472 199.058,201.828 198.23,201.861 C197.402,201.895 196.758,202.593 196.792,203.42" fill="#777776"/>
    <path d="M112.986,73.146 C112.986,79.888 107.23,85.355 100.132,85.355 C93.035,85.355 88.331,77.784 88.331,71.039 C88.331,64.3 93.035,60.934 100.132,60.934 C107.23,60.934 112.986,66.401 112.986,73.146" fill="#F8CDA2"/>
    <path d="M200.529,71.039 C200.529,77.784 195.826,85.355 188.728,85.355 C181.626,85.355 175.869,79.888 175.869,73.146 C175.869,66.401 181.626,60.934 188.728,60.934 C195.826,60.934 200.529,64.3 200.529,71.039" fill="#F8CDA2"/>
    <path d="M187.451,73.375 C187.451,103.836 168.187,131.364 144.427,131.364 C120.67,131.364 101.408,103.836 101.408,73.375 C101.408,42.917 120.671,18.224 144.427,18.224 C168.187,18.224 187.451,42.917 187.451,73.375" fill="#F8CDA2"/>
    <path d="M130.962,108.238 C132.599,109.737 134.687,110.802 136.981,111.511 C139.277,112.217 141.789,112.563 144.314,112.564 C146.817,112.563 149.333,112.222 151.661,111.521 C153.988,110.819 156.133,109.757 157.863,108.269 C158.491,107.729 158.561,106.781 158.021,106.154 C157.48,105.526 156.533,105.456 155.905,105.996 C154.581,107.14 152.808,108.044 150.796,108.649 C148.785,109.256 146.543,109.564 144.314,109.564 C142.066,109.565 139.832,109.25 137.864,108.643 C135.894,108.039 134.198,107.139 132.99,106.027 C132.379,105.467 131.431,105.508 130.871,106.119 C130.311,106.729 130.352,107.678 130.962,108.238" fill="#AC7F5B"/>
    <path d="M142.095,81.327 C140.689,83.486 138.152,85.508 134.039,87.356 C133.325,87.677 132.978,88.493 133.242,89.23 C133.579,90.154 134.16,90.925 134.841,91.655 C135.868,92.744 137.162,93.737 138.461,94.638 C139.758,95.535 141.061,96.331 142.063,96.95 C142.768,97.385 143.693,97.167 144.128,96.462 C144.563,95.757 144.344,94.832 143.639,94.397 C142.296,93.569 140.508,92.475 138.99,91.319 C138.232,90.743 137.544,90.151 137.027,89.6 C136.506,89.053 136.175,88.539 136.066,88.218 L134.654,88.724 L135.269,90.092 C139.687,88.104 142.755,85.796 144.607,82.968 C145.06,82.274 144.865,81.345 144.172,80.892 C143.478,80.439 142.548,80.634 142.095,81.327" fill="#AC7F5B"/>
    <path d="M188.144,224.007 C188.144,224.878 187.431,225.591 186.56,225.591 L167.052,225.591 C166.181,225.591 165.468,224.878 165.468,224.007 L165.468,216.832 C165.468,215.96 166.181,215.248 167.052,215.248 L186.56,215.248 C187.431,215.248 188.144,215.96 188.144,216.832 L188.144,224.007" fill="#FFFFFE"/>
    <path d="M188.144,224.007 L186.644,224.007 L186.618,224.065 L186.56,224.091 L167.052,224.091 L166.994,224.065 L166.968,224.007 L166.968,216.832 L166.994,216.774 L167.052,216.748 L186.56,216.748 L186.618,216.774 L186.644,216.832 L186.644,224.007 L189.644,224.007 L189.644,216.832 C189.638,215.125 188.266,213.753 186.56,213.748 L167.052,213.748 C165.346,213.753 163.974,215.125 163.968,216.832 L163.968,224.007 C163.974,225.714 165.346,227.085 167.052,227.091 L186.56,227.091 C188.266,227.085 189.638,225.714 189.644,224.007 L188.144,224.007" fill="#777776"/>
    <path d="M148.9,256.238 C148.9,258.705 146.9,260.707 144.431,260.707 C141.964,260.707 139.962,258.705 139.962,256.238 C139.962,253.771 141.964,251.769 144.431,251.769 C146.9,251.769 148.9,253.771 148.9,256.238" fill="#FFFFFE"/>
    <path d="M148.9,256.238 L147.4,256.238 C147.397,257.876 146.07,259.204 144.431,259.207 C143.608,259.206 142.875,258.877 142.332,258.337 C141.792,257.794 141.463,257.061 141.462,256.238 C141.463,255.414 141.792,254.681 142.332,254.139 C142.875,253.599 143.608,253.27 144.431,253.269 C146.07,253.272 147.397,254.6 147.4,256.238 L150.4,256.238 C150.399,252.942 147.729,250.27 144.431,250.269 C141.135,250.271 138.464,252.941 138.462,256.238 C138.464,259.534 141.135,262.205 144.431,262.207 C147.729,262.205 150.399,259.533 150.4,256.238 L148.9,256.238" fill="#777776"/>
    <path d="M148.9,301.504 C148.9,303.972 146.9,305.973 144.431,305.973 C141.964,305.973 139.962,303.972 139.962,301.504 C139.962,299.038 141.964,297.037 144.431,297.037 C146.9,297.037 148.9,299.038 148.9,301.504" fill="#FFFFFE"/>
    <path d="M148.9,301.504 L147.4,301.504 C147.397,303.143 146.071,304.47 144.431,304.473 C143.607,304.472 142.875,304.143 142.332,303.603 C141.792,303.061 141.463,302.329 141.462,301.504 C141.463,300.681 141.792,299.948 142.332,299.406 C142.874,298.867 143.607,298.537 144.431,298.537 C146.071,298.54 147.397,299.867 147.4,301.504 L150.4,301.504 C150.399,298.209 147.729,295.538 144.431,295.537 C141.135,295.538 138.464,298.208 138.462,301.504 C138.464,304.802 141.135,307.472 144.431,307.473 C147.729,307.472 150.399,304.801 150.4,301.504 L148.9,301.504" fill="#777776"/>
    <path d="M148.9,346.772 C148.9,349.239 146.9,351.241 144.431,351.241 C141.964,351.241 139.962,349.239 139.962,346.772 C139.962,344.305 141.964,342.303 144.431,342.303 C146.9,342.303 148.9,344.305 148.9,346.772" fill="#FFFFFE"/>
    <path d="M148.9,346.772 L147.4,346.772 C147.397,348.41 146.07,349.738 144.431,349.741 C143.608,349.74 142.875,349.411 142.332,348.871 C141.792,348.328 141.463,347.595 141.462,346.772 C141.463,345.949 141.792,345.216 142.332,344.673 C142.875,344.133 143.608,343.804 144.431,343.803 C146.07,343.806 147.397,345.134 147.4,346.772 L150.4,346.772 C150.399,343.476 147.729,340.804 144.431,340.803 C141.135,340.805 138.464,343.475 138.462,346.772 C138.464,350.069 141.135,352.739 144.431,352.741 C147.729,352.74 150.399,350.068 150.4,346.772 L148.9,346.772" fill="#777776"/>
    <path d="M148.9,392.039 C148.9,394.506 146.9,396.507 144.431,396.507 C141.964,396.507 139.962,394.506 139.962,392.039 C139.962,389.572 141.964,387.571 144.431,387.571 C146.9,387.571 148.9,389.572 148.9,392.039" fill="#FFFFFE"/>
    <path d="M148.9,392.039 L147.4,392.039 C147.397,393.678 146.071,395.004 144.431,395.007 C143.607,395.007 142.875,394.677 142.332,394.138 C141.792,393.596 141.463,392.863 141.462,392.039 C141.463,391.215 141.792,390.483 142.332,389.94 C142.874,389.401 143.607,389.072 144.431,389.071 C146.071,389.074 147.397,390.401 147.4,392.039 L150.4,392.039 C150.399,388.743 147.729,386.072 144.431,386.071 C141.135,386.072 138.464,388.742 138.462,392.039 C138.464,395.336 141.135,398.006 144.431,398.007 C147.729,398.006 150.399,395.335 150.4,392.039 L148.9,392.039" fill="#777776"/>
    <path d="M149.498,173.597 L155.843,156.497 L131.792,156.244 L139.246,173.347 L133.617,217.066 C138.287,234.456 142.785,234.162 144.572,234.162 C146.322,234.162 150.953,235.666 155.744,219.306 L149.498,173.597" fill="#809EA6"/>
    <path d="M144.277,154.635 C155.908,154.996 163.042,142.733 164.833,141.432 C166.335,142.82 171.648,150.379 171.178,152.159 C169.914,156.959 156.591,172.907 156.591,172.907 C156.591,172.907 145.271,158.594 144.123,157.295 C143.152,158.625 130.78,172.656 130.78,172.656 C130.78,172.656 116.904,155.32 117.681,151.338 C118.154,148.954 122.185,142.277 124.472,141.659 C126.662,144.169 132.5,154.256 144.277,154.635" fill="#FFFFFE"/>
    <path d="M144.277,154.635 L144.23,156.135 C144.414,156.14 144.597,156.143 144.779,156.143 C147.878,156.144 150.678,155.323 153.117,154.1 C156.78,152.263 159.664,149.54 161.81,147.185 C162.881,146.007 163.769,144.916 164.457,144.08 C164.799,143.662 165.093,143.308 165.322,143.05 C165.436,142.921 165.534,142.817 165.606,142.746 L165.691,142.665 L165.713,142.647 L165.714,142.646 L164.833,141.432 L163.815,142.534 C163.915,142.625 164.126,142.849 164.374,143.144 C165.258,144.187 166.665,146.124 167.804,147.97 C168.374,148.892 168.882,149.799 169.228,150.542 C169.401,150.912 169.532,151.242 169.612,151.492 C169.651,151.617 169.678,151.722 169.692,151.796 L169.705,151.88 L169.707,151.904 L170.213,151.904 L169.728,151.776 L169.707,151.904 L170.213,151.904 L169.728,151.776 C169.628,152.169 169.326,152.878 168.87,153.714 C168.072,155.187 166.821,157.096 165.406,159.093 C163.283,162.094 160.786,165.315 158.824,167.778 C157.843,169.01 156.996,170.054 156.394,170.788 C156.094,171.155 155.854,171.445 155.691,171.643 C155.527,171.841 155.44,171.945 155.44,171.945 L156.591,172.907 L157.768,171.976 C157.767,171.976 154.937,168.397 151.962,164.655 C150.474,162.783 148.951,160.872 147.725,159.344 C147.113,158.58 146.575,157.913 146.152,157.393 C145.725,156.869 145.428,156.509 145.246,156.302 C144.945,155.961 144.508,155.776 144.053,155.797 C143.598,155.818 143.18,156.043 142.911,156.411 C142.886,156.446 142.787,156.572 142.652,156.737 C142.136,157.367 141.05,158.634 139.732,160.156 C137.751,162.442 135.231,165.32 133.207,167.625 C132.195,168.778 131.307,169.788 130.672,170.509 C130.036,171.231 129.656,171.663 129.655,171.664 L130.78,172.656 L131.951,171.718 C131.951,171.718 131.902,171.658 131.808,171.538 C131.098,170.644 127.866,166.534 124.834,162.149 C123.319,159.959 121.853,157.696 120.789,155.763 C120.258,154.799 119.828,153.916 119.545,153.192 C119.258,152.475 119.141,151.895 119.15,151.693 L119.153,151.626 L119.153,151.63 C119.214,151.284 119.516,150.469 119.965,149.572 C120.636,148.21 121.636,146.572 122.632,145.279 C123.128,144.632 123.626,144.071 124.05,143.683 C124.262,143.489 124.454,143.339 124.603,143.243 C124.751,143.146 124.855,143.107 124.864,143.107 L124.472,141.659 L123.342,142.645 C123.563,142.897 123.885,143.315 124.274,143.828 C125.648,145.635 127.858,148.609 131.106,151.186 C134.349,153.764 138.699,155.961 144.229,156.135 L144.23,156.135 L144.277,154.635 L144.325,153.136 C138.872,152.956 134.829,150.562 131.782,147.831 C130.265,146.467 129.016,145.024 128.007,143.757 C127.502,143.123 127.058,142.534 126.664,142.015 C126.268,141.494 125.929,141.048 125.603,140.673 C125.225,140.24 124.635,140.061 124.081,140.211 C123.521,140.366 123.074,140.637 122.646,140.952 C121.905,141.509 121.219,142.244 120.541,143.084 C119.531,144.343 118.567,145.837 117.793,147.25 C117.406,147.957 117.068,148.642 116.798,149.276 C116.528,149.913 116.323,150.485 116.21,151.047 L116.209,151.051 C116.166,151.271 116.15,151.485 116.15,151.693 C116.16,152.615 116.434,153.484 116.824,154.467 C117.517,156.167 118.649,158.156 119.97,160.248 C123.926,166.498 129.592,173.57 129.609,173.593 C129.887,173.94 130.299,174.145 130.744,174.155 C131.189,174.166 131.611,173.982 131.905,173.648 C131.906,173.647 134.999,170.138 138.216,166.462 C139.825,164.623 141.463,162.743 142.764,161.236 C143.414,160.482 143.98,159.822 144.417,159.305 C144.636,159.045 144.822,158.822 144.973,158.637 C145.126,158.45 145.237,158.312 145.334,158.18 L144.123,157.295 L142.999,158.289 C143.104,158.407 143.412,158.778 143.824,159.286 C145.282,161.077 148.184,164.721 150.716,167.909 C151.982,169.504 153.157,170.986 154.015,172.07 C154.874,173.153 155.413,173.836 155.415,173.837 C155.694,174.19 156.121,174.401 156.571,174.407 C157.021,174.413 157.454,174.214 157.742,173.868 C157.751,173.858 161.092,169.859 164.604,165.241 C166.362,162.93 168.161,160.466 169.619,158.25 C170.348,157.14 170.992,156.093 171.507,155.143 C172.022,154.187 172.412,153.348 172.629,152.541 C172.689,152.31 172.707,152.099 172.707,151.904 C172.702,151.353 172.575,150.894 172.411,150.403 C172.116,149.554 171.656,148.634 171.106,147.659 C170.281,146.201 169.252,144.645 168.297,143.321 C167.819,142.659 167.361,142.057 166.95,141.552 C166.536,141.043 166.188,140.645 165.85,140.33 C165.324,139.845 164.53,139.798 163.951,140.218 C163.715,140.392 163.542,140.563 163.356,140.756 C163.015,141.115 162.653,141.551 162.225,142.07 C160.743,143.875 158.489,146.675 155.531,149.002 C152.568,151.332 148.98,153.144 144.779,153.143 C144.628,153.143 144.476,153.141 144.323,153.136 L144.325,153.136 L144.277,154.635" fill="#777776"/>
    <path d="M144.429,236.072 C139.618,224.085 124.406,173.42 121.162,141.086 L111.763,148.564 C110.22,149.792 110.262,157.13 110.093,158.843 C109.226,167.664 109.762,176.623 110.059,185.463 L124.74,191.489 L109.89,200.174 C109.89,200.174 129.858,230.032 144.429,236.072" fill="#FFFFFE"/>
    <path d="M144.429,236.072 L145.821,235.513 C144.648,232.593 142.797,227.191 140.653,220.276 C134.21,199.525 125.061,164.976 122.654,140.937 C122.599,140.389 122.252,139.918 121.745,139.704 C121.238,139.491 120.658,139.57 120.228,139.913 L110.829,147.39 C110.353,147.779 110.1,148.22 109.891,148.665 C109.539,149.446 109.342,150.321 109.181,151.276 C108.947,152.702 108.832,154.291 108.757,155.674 C108.72,156.364 108.693,157.001 108.669,157.529 C108.645,158.054 108.622,158.482 108.601,158.696 C108.243,162.332 108.121,165.976 108.121,169.61 C108.121,174.949 108.384,180.269 108.56,185.514 C108.58,186.101 108.946,186.628 109.49,186.851 L121.365,191.725 L109.133,198.88 C108.777,199.088 108.521,199.437 108.428,199.838 C108.336,200.24 108.414,200.666 108.643,201.008 C108.661,201.034 113.674,208.531 120.541,216.815 C123.975,220.958 127.873,225.299 131.863,229.013 C135.861,232.725 139.928,235.822 143.855,237.457 C144.411,237.688 145.056,237.562 145.484,237.138 C145.912,236.715 146.045,236.072 145.821,235.513 L144.429,236.072 L145.004,234.686 C141.645,233.302 137.752,230.402 133.907,226.817 C128.128,221.441 122.413,214.554 118.166,209.026 C116.041,206.261 114.28,203.835 113.053,202.102 C112.439,201.236 111.958,200.543 111.632,200.068 C111.469,199.831 111.344,199.648 111.261,199.524 C111.178,199.401 111.137,199.341 111.137,199.34 L109.89,200.174 L110.647,201.469 L125.497,192.784 C125.988,192.496 126.276,191.952 126.236,191.384 C126.196,190.816 125.836,190.317 125.309,190.101 L110.629,184.076 L110.059,185.463 L111.558,185.413 C111.381,180.137 111.121,174.851 111.121,169.61 C111.121,166.043 111.241,162.498 111.586,158.99 C111.636,158.467 111.662,157.704 111.707,156.757 C111.771,155.348 111.872,153.583 112.086,152.121 C112.191,151.392 112.328,150.739 112.477,150.286 C112.55,150.06 112.626,149.886 112.681,149.789 L112.735,149.704 L112.736,149.702 L112.514,149.508 L112.697,149.738 L112.736,149.702 L112.514,149.508 L112.697,149.738 L122.096,142.26 L121.162,141.086 L119.669,141.236 C121.308,157.55 125.937,178.339 130.757,196.592 C133.168,205.717 135.627,214.202 137.787,221.165 C139.949,228.131 141.804,233.557 143.037,236.631 L144.429,236.072 L145.004,234.686 L144.429,236.072" fill="#777776"/>
    <path d="M144.429,236.072 C149.24,224.085 164.451,173.42 167.697,141.086 L177.094,148.564 C178.651,149.802 178.603,157.116 178.771,158.844 C179.628,167.666 179.095,176.622 178.798,185.463 L164.117,191.489 L178.968,200.174 C178.968,200.174 159,230.032 144.429,236.072" fill="#FFFFFE"/>
    <path d="M144.429,236.072 L145.821,236.63 C147.054,233.557 148.909,228.131 151.07,221.165 C157.548,200.271 166.728,165.698 169.189,141.236 L167.697,141.086 L166.763,142.26 L176.16,149.738 L176.345,149.505 L176.125,149.706 L176.16,149.738 L176.345,149.505 L176.125,149.706 L176.137,149.722 C176.177,149.775 176.276,149.961 176.367,150.231 C176.531,150.705 176.683,151.426 176.796,152.23 C176.968,153.439 177.063,154.844 177.126,156.076 C177.158,156.692 177.181,157.266 177.204,157.76 C177.227,158.256 177.247,158.661 177.278,158.989 C177.618,162.486 177.737,166.019 177.737,169.573 C177.737,174.826 177.477,180.124 177.299,185.413 L178.798,185.463 L178.229,184.076 L163.547,190.101 C163.02,190.317 162.66,190.816 162.62,191.384 C162.581,191.952 162.868,192.496 163.359,192.784 L178.211,201.469 L178.968,200.174 L177.721,199.34 C177.721,199.341 177.648,199.451 177.5,199.667 C176.396,201.292 171.255,208.733 164.721,216.436 C161.455,220.287 157.84,224.203 154.229,227.48 C150.623,230.759 147.002,233.388 143.855,234.686 L144.429,236.072 L145.821,236.63 L144.429,236.072 L145.004,237.457 C148.931,235.822 152.997,232.725 156.995,229.013 C162.978,223.443 168.761,216.459 173.071,210.854 C177.378,205.25 180.202,201.027 180.215,201.008 C180.444,200.666 180.522,200.24 180.43,199.838 C180.338,199.437 180.081,199.088 179.725,198.88 L167.492,191.725 L179.368,186.851 C179.912,186.628 180.278,186.101 180.297,185.514 C180.474,180.256 180.736,174.925 180.737,169.573 C180.736,165.953 180.616,162.322 180.264,158.699 C180.23,158.36 180.198,157.563 180.155,156.614 C180.089,155.178 179.991,153.345 179.749,151.688 C179.626,150.856 179.47,150.069 179.238,149.357 C179.12,149 178.984,148.66 178.801,148.331 C178.616,148.004 178.386,147.678 178.028,147.39 L168.631,139.913 C168.2,139.57 167.621,139.491 167.114,139.704 C166.607,139.918 166.259,140.389 166.204,140.937 C164.598,156.957 159.998,177.667 155.199,195.826 C152.8,204.907 150.352,213.357 148.205,220.276 C146.06,227.191 144.21,232.593 143.037,235.513 C142.813,236.072 142.946,236.715 143.375,237.138 C143.803,237.562 144.447,237.688 145.004,237.457 L144.429,236.072" fill="#777776"/>
    <path d="M51.834,192.489 C52.882,194.534 54.489,198.49 56.289,203.333 C58.995,210.608 62.175,219.943 64.848,228.312 C66.184,232.496 67.394,236.439 68.354,239.761 C69.314,243.078 70.026,245.79 70.357,247.439 C70.52,248.251 71.311,248.777 72.123,248.614 C72.935,248.45 73.462,247.66 73.298,246.848 C72.81,244.426 71.684,240.35 70.188,235.381 C67.945,227.937 64.876,218.548 61.947,210.191 C60.483,206.012 59.054,202.092 57.778,198.799 C56.499,195.501 55.385,192.846 54.505,191.123 C54.128,190.386 53.224,190.093 52.486,190.471 C51.749,190.848 51.457,191.752 51.834,192.489" fill="#777776"/>
    <path d="M98.276,63.081 C99.196,66.064 101.559,68.589 104.447,70.474 C107.345,72.356 110.799,73.603 114.075,73.889 C114.625,73.936 115.109,73.529 115.157,72.979 C115.204,72.428 114.797,71.944 114.247,71.896 C111.357,71.651 108.157,70.505 105.538,68.798 C102.91,67.094 100.892,64.833 100.189,62.498 C100.028,61.969 99.469,61.672 98.941,61.833 C98.412,61.994 98.115,62.553 98.276,63.081" fill="#907A62"/>
    <path d="M188.668,62.498 C187.965,64.833 185.947,67.094 183.319,68.798 C180.699,70.505 177.5,71.651 174.61,71.896 C174.06,71.944 173.652,72.428 173.699,72.979 C173.747,73.529 174.231,73.936 174.782,73.889 C178.058,73.603 181.512,72.356 184.409,70.474 C187.298,68.589 189.662,66.064 190.581,63.081 C190.742,62.553 190.445,61.994 189.916,61.833 C189.388,61.672 188.829,61.97 188.668,62.498" fill="#907A62"/>
    <g clip-path="url(#Clip_2)">
      <path d="M134.69,75.505 L154.167,75.505 C154.719,75.505 155.167,75.058 155.167,74.505 C155.167,73.953 154.719,73.505 154.167,73.505 L134.69,73.505 C134.138,73.505 133.69,73.953 133.69,74.505 C133.69,75.058 134.138,75.505 134.69,75.505" fill="#907A62"/>
      <path d="M166.71,13.166 C167.25,14.167 167.775,15.236 168.291,16.378 C170.037,20.243 170.74,24.126 170.568,28.364 C169.632,51.466 131.921,54.626 115.006,53.908 C119.712,52.538 129.884,48.222 129.978,42.999 C130.007,41.363 110.672,52.145 109.269,53.436 C107.02,55.504 104.337,57.416 103.186,60.279 C101.46,64.57 103.175,71.067 101.274,75.462 C88.202,60.146 89.566,33.809 104.458,19.75 C114.283,10.473 127.217,1.299 141.437,0.567 C154.242,-0.092 161.185,2.907 166.71,13.166" fill="#AC7F5B"/>
    </g>
    <path d="M162.298,12.497 C162.267,12.704 162.243,12.917 162.222,13.136 C161.162,24.744 168.657,34.558 174.676,43.713 C177.681,48.282 182.674,55.392 184.447,60.675 C186.103,65.612 185.765,68.526 186.085,73.386 C185.783,72.587 191.28,67.515 194.266,59.532 C195.924,55.1 195.741,51.936 195.318,47.344 C194.023,33.258 188.718,20.757 179.673,10.271 C174.914,4.754 163.642,3.249 162.298,12.497" fill="#AC7F5B"/>
    <path d="M174.549,78.039 C174.549,80.789 172.299,83.039 169.549,83.039 L159.274,83.039 C156.524,83.039 154.274,80.789 154.274,78.039 L154.274,70.146 C154.274,67.396 156.524,65.146 159.274,65.146 L169.549,65.146 C172.299,65.146 174.549,67.396 174.549,70.146 L174.549,78.039" fill="#F8CDA2"/>
    <path d="M174.549,78.039 L173.549,78.039 C173.549,79.138 173.102,80.133 172.373,80.863 C171.644,81.591 170.649,82.038 169.549,82.039 L159.274,82.039 C158.175,82.038 157.179,81.591 156.45,80.863 C155.722,80.133 155.274,79.138 155.274,78.039 L155.274,70.146 C155.274,69.047 155.722,68.051 156.45,67.322 C157.179,66.594 158.175,66.146 159.274,66.146 L169.549,66.146 C170.649,66.146 171.644,66.594 172.373,67.322 C173.102,68.051 173.549,69.047 173.549,70.146 L173.549,78.039 L175.549,78.039 L175.549,70.146 C175.546,66.839 172.856,64.15 169.549,64.146 L159.274,64.146 C155.967,64.15 153.278,66.839 153.274,70.146 L153.274,78.039 C153.278,81.345 155.967,84.035 159.274,84.039 L169.549,84.039 C172.856,84.035 175.545,81.345 175.549,78.039 L174.549,78.039" fill="#907A62"/>
    <path d="M134.583,78.039 C134.583,80.789 132.333,83.039 129.583,83.039 L119.308,83.039 C116.558,83.039 114.308,80.789 114.308,78.039 L114.308,70.146 C114.308,67.396 116.558,65.146 119.308,65.146 L129.583,65.146 C132.333,65.146 134.583,67.396 134.583,70.146 L134.583,78.039" fill="#F8CDA2"/>
    <path d="M134.583,78.039 L133.583,78.039 C133.582,79.138 133.135,80.133 132.407,80.863 C131.677,81.591 130.682,82.038 129.583,82.039 L119.308,82.039 C118.209,82.038 117.213,81.591 116.484,80.863 C115.755,80.133 115.308,79.138 115.308,78.039 L115.308,70.146 C115.308,69.047 115.755,68.052 116.484,67.322 C117.213,66.594 118.209,66.146 119.308,66.146 L129.583,66.146 C130.682,66.146 131.677,66.594 132.407,67.322 C133.135,68.051 133.582,69.047 133.583,70.146 L133.583,78.039 L135.583,78.039 L135.583,70.146 C135.579,66.839 132.889,64.15 129.583,64.146 L119.308,64.146 C116.001,64.15 113.311,66.839 113.308,70.146 L113.308,78.039 C113.311,81.345 116.001,84.035 119.308,84.039 L129.583,84.039 C132.889,84.035 135.579,81.345 135.583,78.039 L134.583,78.039" fill="#907A62"/>
    <path d="M128.474,73.798 C128.474,76.063 126.738,77.898 124.593,77.898 C122.453,77.898 120.714,76.063 120.714,73.798 C120.714,71.536 122.453,69.699 124.593,69.699 C126.738,69.699 128.474,71.536 128.474,73.798" fill="#AC7F5B"/>
    <path d="M168.142,73.798 C168.142,76.063 166.408,77.898 164.259,77.898 C162.119,77.898 160.386,76.063 160.386,73.798 C160.386,71.536 162.119,69.699 164.259,69.699 C166.408,69.699 168.142,71.536 168.142,73.798" fill="#AC7F5B"/>
  </g>
</svg>
